<?xml version="1.0" standalone="no"?><!DOCTYPE svg PUBLIC "-//W3C//DTD SVG 1.1//EN" "http://www.w3.org/Graphics/SVG/1.1/DTD/svg11.dtd"><svg t="1699716664108" class="icon" viewBox="0 0 1024 1024" version="1.1" xmlns="http://www.w3.org/2000/svg" p-id="4039" xmlns:xlink="http://www.w3.org/1999/xlink" width="200" height="200"><path d="M512 1024C229.248 1024 0 794.752 0 512S229.248 0 512 0s512 229.248 512 512-229.248 512-512 512z m0-938.667C276.352 85.333 85.333 276.352 85.333 512S276.352 938.667 512 938.667 938.667 747.648 938.667 512 747.648 85.333 512 85.333z m0 768a340.65 340.65 0 0 1-266.24-128 340.65 340.65 0 0 1 266.24-128 340.48 340.48 0 0 1 266.197 128 340.48 340.48 0 0 1-266.197 128z m0-298.666a170.667 170.667 0 1 1 0-341.334 170.667 170.667 0 0 1 0 341.334z" p-id="4040"></path></svg>